<?xml version="1.0" standalone="no"?>
<!DOCTYPE svg PUBLIC "-//W3C//DTD SVG 1.0//EN" "http://www.w3.org/TR/2001/REC-SVG-20010904/DTD/svg10.dtd">
<svg xmlns="http://www.w3.org/2000/svg" xmlns:xlink="http://www.w3.org/1999/xlink" id="body_1" width="166" height="198">

<defs>
        <clipPath  id="1">

            <path clip-rule="evenodd" d="M405 60L878 60L878 625L405 625L405 60z" />        </clipPath>
            <clipPath  id="2">

                <path clip-rule="evenodd" d="M406 60L877 60L877 625L406 625L406 60z" />            </clipPath>
                <clipPath  id="3">

                    <path clip-rule="evenodd" d="M406 60L877 60L877 625L406 625L406 60z" />                </clipPath>
</defs>

<g transform="matrix(0.35095137 0 0 0.3504425 0 0)">
	<g transform="matrix(1 0 0 1 -405 -60)" clip-path="url(#1)" >
		<g clip-path="url(#2)" >
			<g clip-path="url(#3)" >
                <path transform="matrix(1 0 -0 1.00234 280.525 -0.500689)"  d="M385.641 593.9C 385.641 608.758 373.596 620.803 358.738 620.803C 343.88 620.803 331.835 608.758 331.835 593.9C 331.835 579.042 343.88 566.996 358.738 566.996C 373.596 566.996 385.641 579.042 385.641 593.9z" stroke="none" fill="#E6E6E6" fill-rule="nonzero" />
                <path transform="matrix(1 0 -0 1.00234 280.525 -0.500689)"  d="M366.007 166.517C 363.984 166.442 362.035 166.367 360.012 166.367C 358.064 166.367 356.115 166.442 354.092 166.517C 256.595 170.414 183.678 275.48 226.694 363.085L226.694 363.085L228.717 367.131C 251.574 406.475 281.475 395.983 281.475 440.797L281.475 440.797L281.475 472.497L439.299 472.497L439.299 440.423C 439.299 395.833 466.277 404.901 488.459 367.356L488.459 367.356L490.782 362.56C 532.974 274.88 463.204 170.414 366.007 166.517z" stroke="none" fill="#FBB03B" fill-rule="nonzero" />
                <path transform="matrix(1 0 -0 1.00234 280.525 -0.500689)"  d="M366.007 166.517C 363.984 166.442 362.035 166.367 360.012 166.367C 358.064 166.367 356.115 166.442 354.092 166.517C 311.226 168.24 273.156 189.448 247.602 220.174C 271.433 200.24 301.634 187.275 334.682 185.926C 336.631 185.851 338.579 185.776 340.603 185.776C 342.626 185.776 344.574 185.851 346.598 185.926C 443.795 189.898 513.639 294.29 471.448 381.969L471.448 381.969L469.125 386.766C 467.401 389.688 465.677 392.311 463.879 394.634C 471.673 388.489 480.441 380.995 488.534 367.356L488.534 367.356L490.857 362.56C 532.974 274.88 463.204 170.414 366.007 166.517z" stroke="none" fill="#FFC06C" fill-rule="nonzero" />
                <path transform="matrix(1 0 -0 1.00234 280.525 -0.500689)"  d="M374.85 461.181C 372.002 436.001 369.23 410.746 370.204 385.417C 371.178 360.087 376.274 334.607 388.339 312.35C 391.412 306.73 395.009 301.184 400.255 297.437C 409.023 291.217 421.838 291.367 430.456 297.887C 439.074 304.406 442.671 316.697 439.074 326.814C 435.477 336.781 426.184 343.525 416.517 347.947C 397.332 356.79 315.872 356.79 296.688 347.947C 287.095 343.525 277.728 336.781 274.131 326.814C 270.459 316.697 274.131 304.406 282.749 297.887C 291.367 291.367 304.182 291.217 312.95 297.437C 318.195 301.184 321.793 306.73 324.865 312.35C 336.93 334.607 342.026 360.087 343.001 385.417C 343.975 410.746 341.202 436.001 338.354 461.181" stroke="#FFFFFF" stroke-width="11.1929" fill="none" />
                <path transform="matrix(1 0 -0 1.00234 280.525 -0.500689)"  d="M417.341 593.9L304.406 593.9C 295.339 593.9 281.25 586.856 281.25 578.237L281.25 578.237L281.25 464.553C 281.25 458.483 286.121 453.612 292.191 453.612L292.191 453.612L429.556 453.612C 435.626 453.612 440.498 458.483 440.498 464.553L440.498 464.553L440.498 577.788L440.498 578.237C 440.498 586.856 426.334 593.9 417.341 593.9z" stroke="none" fill="#CCCCCC" fill-rule="nonzero" />
                <path transform="matrix(1 0 -0 1.00234 280.525 -0.500689)"  d="M440.797 472.497L271.733 492.881C 264.538 493.78 258.019 488.609 257.119 481.415L257.119 481.415L256.82 478.867C 255.92 471.673 261.091 465.153 268.285 464.254L268.285 464.254L437.35 443.87C 444.544 442.971 451.064 448.142 451.963 455.336L451.963 455.336L452.263 457.884C 453.162 465.078 447.992 471.598 440.797 472.497z" stroke="none" fill="#E6E6E6" fill-rule="nonzero" />
                <path transform="matrix(1 0 -0 1.00234 280.525 -0.500689)"  d="M446.568 520.009L277.503 540.393C 270.309 541.292 263.789 536.121 262.89 528.927L262.89 528.927L262.59 526.379C 261.691 519.185 266.862 512.665 274.056 511.766L274.056 511.766L443.121 491.382C 450.315 490.483 456.835 495.654 457.734 502.848L457.734 502.848L458.034 505.396C 458.858 512.59 453.762 519.185 446.568 520.009z" stroke="none" fill="#E6E6E6" fill-rule="nonzero" />
                <path transform="matrix(1 0 -0 1.00234 280.525 -0.500689)"  d="M452.263 567.596L283.198 587.98C 276.004 588.879 269.484 583.708 268.585 576.514L268.585 576.514L268.285 573.966C 267.386 566.772 272.557 560.252 279.751 559.353L279.751 559.353L448.816 538.969C 456.01 538.07 462.53 543.24 463.429 550.435L463.429 550.435L463.729 552.983C 464.628 560.177 459.457 566.697 452.263 567.596z" stroke="none" fill="#E6E6E6" fill-rule="nonzero" />
                <path transform="matrix(1 0 -0 1.00234 280.525 -0.500689)"  d="M281.25 539.943L281.25 549.011L440.498 529.826L440.498 520.758L281.25 539.943z" stroke="none" fill="#B3B3B3" fill-rule="nonzero" />
                <path transform="matrix(1 0 -0 1.00234 280.525 -0.500689)"  d="M439.523 472.647L281.25 491.757L281.25 500.824L439.523 481.715C 439.823 481.64 440.123 481.565 440.423 481.49L440.423 481.49L440.423 472.422C 440.123 472.497 439.898 472.572 439.523 472.647z" stroke="none" fill="#B3B3B3" fill-rule="nonzero" />
                <path transform="matrix(1 0 -0 1.00234 280.525 -0.500689)"  d="M286.871 587.53C 291.817 591.352 299.011 593.9 304.406 593.9L304.406 593.9L309.278 593.9L440.498 578.088L440.498 577.788L440.498 569.02L286.871 587.53z" stroke="none" fill="#B3B3B3" fill-rule="nonzero" />
                <path transform="matrix(1 0 -0 1.00234 280.525 -0.500689)"  d="M181.505 453.537L223.321 417.866" stroke="#FBB03B" stroke-width="18.6548" fill="none" />
                <path transform="matrix(1 0 -0 1.00234 280.525 -0.500689)"  d="M181.505 453.537L223.321 417.866" stroke="#FBB03B" stroke-width="18.6548" fill="none" />
                <path transform="matrix(1 0 -0 1.00234 280.525 -0.500689)"  d="M133.318 361.736L186.376 347.647" stroke="#FBB03B" stroke-width="18.6548" fill="none" />
                <path transform="matrix(1 0 -0 1.00234 280.525 -0.500689)"  d="M133.318 361.736L186.376 347.647" stroke="#FBB03B" stroke-width="18.6548" fill="none" />
                <path transform="matrix(1 0 -0 1.00234 280.525 -0.500689)"  d="M129.571 258.168L183.528 268.285" stroke="#FBB03B" stroke-width="18.6548" fill="none" />
                <path transform="matrix(1 0 -0 1.00234 280.525 -0.500689)"  d="M129.571 258.168L183.528 268.285" stroke="#FBB03B" stroke-width="18.6548" fill="none" />
                <path transform="matrix(1 0 -0 1.00234 280.525 -0.500689)"  d="M170.863 162.995L215.078 195.519" stroke="#FBB03B" stroke-width="18.6548" fill="none" />
                <path transform="matrix(1 0 -0 1.00234 280.525 -0.500689)"  d="M170.863 162.995L215.078 195.519" stroke="#FBB03B" stroke-width="18.6548" fill="none" />
                <path transform="matrix(1 0 -0 1.00234 280.525 -0.500689)"  d="M249.101 95.0989L275.03 143.435" stroke="#FBB03B" stroke-width="18.6548" fill="none" />
                <path transform="matrix(1 0 -0 1.00234 280.525 -0.500689)"  d="M249.101 95.0989L275.03 143.435" stroke="#FBB03B" stroke-width="18.6548" fill="none" />
                <path transform="matrix(1 0 -0 1.00234 280.525 -0.500689)"  d="M349.071 67.5959L351.544 122.452" stroke="#FBB03B" stroke-width="18.6548" fill="none" />
                <path transform="matrix(1 0 -0 1.00234 280.525 -0.500689)"  d="M349.071 67.5959L351.544 122.452" stroke="#FBB03B" stroke-width="18.6548" fill="none" />
                <path transform="matrix(1 0 -0 1.00234 280.525 -0.500689)"  d="M451.064 85.8813L429.706 136.391" stroke="#FBB03B" stroke-width="18.6548" fill="none" />
                <path transform="matrix(1 0 -0 1.00234 280.525 -0.500689)"  d="M451.064 85.8813L429.706 136.391" stroke="#FBB03B" stroke-width="18.6548" fill="none" />
                <path transform="matrix(1 0 -0 1.00234 280.525 -0.500689)"  d="M535.147 146.433L494.08 182.854" stroke="#FBB03B" stroke-width="18.6548" fill="none" />
                <path transform="matrix(1 0 -0 1.00234 280.525 -0.500689)"  d="M535.147 146.433L494.08 182.854" stroke="#FBB03B" stroke-width="18.6548" fill="none" />
                <path transform="matrix(1 0 -0 1.00234 280.525 -0.500689)"  d="M584.982 237.41L532.149 252.398" stroke="#FBB03B" stroke-width="18.6548" fill="none" />
                <path transform="matrix(1 0 -0 1.00234 280.525 -0.500689)"  d="M584.982 237.41L532.149 252.398" stroke="#FBB03B" stroke-width="18.6548" fill="none" />
                <path transform="matrix(1 0 -0 1.00234 280.525 -0.500689)"  d="M589.029 342.626L535.597 330.036" stroke="#FBB03B" stroke-width="18.6548" fill="none" />
                <path transform="matrix(1 0 -0 1.00234 280.525 -0.500689)"  d="M589.029 342.626L535.597 330.036" stroke="#FBB03B" stroke-width="18.6548" fill="none" />
                <path transform="matrix(1 0 -0 1.00234 280.525 -0.500689)"  d="M553.282 434.427L504.946 408.423" stroke="#FBB03B" stroke-width="18.6548" fill="none" />
                <path transform="matrix(1 0 -0 1.00234 280.525 -0.500689)"  d="M553.282 434.427L504.946 408.423" stroke="#FBB03B" stroke-width="18.6548" fill="none" />
			</g>
		</g>
	</g>
</g>
</svg>